<svg width="82" height="81" viewBox="0 0 82 81" fill="none" xmlns="http://www.w3.org/2000/svg">
<mask id="mask0_11_5592" style="mask-type:luminance" maskUnits="userSpaceOnUse" x="0" y="0" width="82" height="81">
<path d="M0.5 0H81.4V80.62H0.5V0Z" fill="white"/>
</mask>
<g mask="url(#mask0_11_5592)">
<path d="M81.18 43.0099L80.8 42.6999C77.21 39.7599 73.51 36.7299 68.44 36.8299C66.8 36.8699 65.21 37.1799 63.68 37.4799C63.03 37.6099 62.4 37.7299 61.77 37.8299C63.09 36.6999 64.23 35.3599 65.34 34.0599C65.98 33.3099 66.64 32.5299 67.32 31.8099C67.67 31.4399 68 31.0699 68.34 30.6999C69.49 29.4199 70.57 28.2199 72.06 27.3399C73.89 26.2599 76.1 25.6299 78.05 25.0699C78.33 24.9899 78.51 24.7499 78.5 24.4599C78.49 24.1799 78.3 23.9499 78.02 23.8999L77.54 23.7999C72.99 22.8599 68.29 21.8899 63.87 24.3499C62.44 25.1399 61.17 26.1599 59.95 27.1399C59.43 27.5499 58.93 27.9599 58.42 28.3399C59.06 26.7199 59.45 25.0099 59.83 23.3399C60.05 22.3799 60.27 21.3899 60.54 20.4299C60.68 19.9399 60.8 19.4599 60.92 18.9699C61.34 17.3099 61.74 15.7299 62.65 14.2699C63.77 12.4599 65.43 10.8699 66.9 9.46987C67.11 9.26987 67.15 8.96987 67.01 8.71987C66.87 8.47987 66.59 8.35988 66.32 8.43988L65.84 8.57987C61.38 9.85987 56.77 11.1899 53.99 15.4199C53.09 16.7899 52.44 18.2699 51.82 19.7099C51.55 20.3199 51.3 20.9099 51.02 21.4799C50.84 19.7499 50.39 18.0499 49.95 16.3999C49.7 15.4499 49.43 14.4699 49.23 13.4899C49.13 12.9899 49.01 12.4999 48.89 12.0199C48.49 10.3499 48.11 8.76988 48.24 7.04988C48.39 4.92988 49.13 2.74988 49.77 0.829875C49.86 0.559875 49.77 0.269876 49.52 0.119876C49.28 -0.0301238 48.99 -0.000122011 48.78 0.199878L48.42 0.539874C45.07 3.74987 41.6 7.06988 41.1 12.0999C40.94 13.7299 41.06 15.3399 41.17 16.8999C41.22 17.5599 41.26 18.2099 41.29 18.8399C40.32 17.3899 39.13 16.0899 37.98 14.8399C37.31 14.1199 36.62 13.3699 35.99 12.5999C35.67 12.2099 35.34 11.8299 35.01 11.4599C33.88 10.1699 32.81 8.93987 32.12 7.35987C31.27 5.40987 30.91 3.13987 30.59 1.13987C30.54 0.859873 30.32 0.649876 30.04 0.619876C29.76 0.589876 29.51 0.75988 29.42 1.02988L29.26 1.49987C27.78 5.89987 26.25 10.4499 28.16 15.1399C28.78 16.6599 29.63 18.0299 30.45 19.3599C30.8 19.9199 31.14 20.4699 31.46 21.0199C29.93 20.1899 28.27 19.5899 26.67 19.0199C25.74 18.6899 24.78 18.3499 23.86 17.9599C23.39 17.7599 22.92 17.5799 22.46 17.3999C20.86 16.7799 19.35 16.1899 18 15.1099C16.34 13.7799 14.97 11.9399 13.75 10.3099C13.58 10.0799 13.29 9.99987 13.02 10.1099C12.76 10.2199 12.62 10.4799 12.66 10.7599L12.74 11.2499C13.48 15.8299 14.24 20.5699 18.1 23.8399C19.35 24.8999 20.75 25.7199 22.09 26.5099C22.66 26.8499 23.22 27.1699 23.75 27.5099C22.01 27.4799 20.27 27.7199 18.58 27.9599C17.6 28.0999 16.6 28.2399 15.6 28.3299C15.09 28.3699 14.6 28.4299 14.1 28.4899C12.39 28.6899 10.78 28.8699 9.08999 28.5399C6.99999 28.1299 4.92999 27.1399 3.09999 26.2699C2.83999 26.1399 2.54 26.2099 2.36 26.4299C2.18 26.6499 2.17999 26.9499 2.34999 27.1699L2.64999 27.5699C5.42999 31.2799 8.30999 35.1299 13.25 36.2199C14.85 36.5799 16.47 36.6599 18.03 36.7299C18.69 36.7599 19.34 36.7899 19.97 36.8499C18.42 37.6399 16.98 38.6599 15.6 39.6599C14.8 40.2299 13.97 40.8299 13.14 41.3699C12.71 41.6399 12.3 41.9299 11.89 42.2099C10.47 43.1799 9.12999 44.0899 7.46999 44.5799C5.42999 45.1899 3.13 45.2799 1.11 45.3499C0.819996 45.3599 0.589994 45.5599 0.529994 45.8399C0.469994 46.1199 0.609996 46.3799 0.859996 46.4999L1.29999 46.7099C4.56999 48.2699 7.91999 49.8699 11.56 49.8699C12.59 49.8699 13.63 49.7399 14.71 49.4499C16.29 49.0199 17.76 48.3399 19.18 47.6799C19.78 47.3999 20.37 47.1299 20.95 46.8799C19.94 48.2999 19.15 49.8699 18.39 51.3899C17.95 52.2699 17.49 53.1799 17 54.0499C16.75 54.4899 16.51 54.9299 16.28 55.3699C15.47 56.8899 14.71 58.3199 13.47 59.5199C11.95 61.0099 9.94999 62.1499 8.19999 63.1599C7.94999 63.2999 7.83999 63.5799 7.90999 63.8599C7.98999 64.1199 8.21999 64.2899 8.48999 64.2899C8.48999 64.2899 8.50999 64.2899 8.51999 64.2899L9.00999 64.2699C13.65 64.0899 18.44 63.9099 22.15 60.4699C23.35 59.3499 24.34 58.0699 25.29 56.8299C25.69 56.2999 26.09 55.7899 26.49 55.2999C26.25 57.0299 26.28 58.7899 26.32 60.4899C26.34 61.4699 26.36 62.4899 26.32 63.4899C26.3 63.9999 26.3 64.4999 26.3 64.9999C26.29 66.7199 26.28 68.3399 25.74 69.9799C25.08 71.9999 23.85 73.9399 22.76 75.6599C22.61 75.8999 22.63 76.2099 22.83 76.4099C22.95 76.5299 23.1 76.5999 23.26 76.5999C23.36 76.5999 23.47 76.5699 23.57 76.5199L24 76.2699C28.02 73.9599 32.18 71.5599 33.87 66.7899C34.42 65.2399 34.69 63.6499 34.96 62.1099C35.07 61.4599 35.18 60.8199 35.31 60.1999C35.9 61.8399 36.75 63.3799 37.57 64.8799C38.04 65.7399 38.54 66.6299 38.97 67.5299C39.19 67.9899 39.42 68.4299 39.65 68.8799C40.44 70.4099 41.18 71.8499 41.47 73.5499C41.83 75.6499 41.64 77.9399 41.47 79.9599C41.45 80.2499 41.61 80.4999 41.88 80.5899C41.94 80.6099 42.01 80.6199 42.08 80.6199C42.28 80.6199 42.47 80.5199 42.58 80.3399L42.85 79.9199C45.34 75.9999 47.91 71.9499 47.18 66.9399C46.95 65.3199 46.45 63.7799 45.96 62.2899C45.76 61.6599 45.56 61.0499 45.38 60.4399C46.67 61.6099 48.13 62.5899 49.55 63.5299C50.37 64.0699 51.22 64.6399 52.02 65.2299C52.43 65.5299 52.84 65.8199 53.25 66.1099C54.66 67.0999 55.98 68.0299 57.03 69.3999C58.32 71.0899 59.22 73.2099 60.01 75.0699C60.11 75.2999 60.33 75.4499 60.57 75.4499C60.6 75.4499 60.64 75.4499 60.67 75.4499C60.95 75.4099 61.15 75.1899 61.17 74.8999L61.21 74.4099C61.59 69.7799 61.99 64.9999 59.02 60.8999C58.06 59.5699 56.9 58.4399 55.78 57.3499C55.31 56.8899 54.85 56.4399 54.4 55.9799C56.08 56.4199 57.83 56.6099 59.53 56.7799C60.51 56.8799 61.52 56.9799 62.51 57.1399C63.01 57.2199 63.51 57.2799 64 57.3499C65.7 57.5699 67.31 57.7799 68.88 58.4999C70.81 59.3999 72.59 60.8499 74.16 62.1399C74.28 62.2299 74.41 62.2799 74.55 62.2799C74.68 62.2799 74.81 62.2399 74.92 62.1599C75.14 61.9899 75.22 61.6999 75.11 61.4399L74.92 60.9899C73.11 56.7199 71.24 52.2999 66.7 50.0499C65.23 49.3199 63.68 48.8599 62.18 48.4099C61.54 48.2199 60.93 48.0299 60.32 47.8299C62.02 47.4399 63.65 46.7899 65.23 46.1499C66.14 45.7799 67.09 45.3999 68.03 45.0799C68.51 44.9199 68.98 44.7399 69.45 44.5699C71.06 43.9699 72.58 43.4099 74.31 43.3199C76.44 43.2199 78.69 43.6799 80.67 44.0899C80.95 44.1499 81.22 44.0099 81.35 43.7599C81.47 43.5099 81.4 43.2199 81.19 43.0399L81.18 43.0099ZM35.19 58.5099C32.33 57.5999 29.76 56.0299 27.65 53.9899C27.53 53.8699 27.41 53.7599 27.3 53.6399C25.27 51.5599 23.71 49.0199 22.8 46.1999C22.75 46.0399 22.7 45.8799 22.65 45.7199C22.14 44.0099 21.87 42.1899 21.87 40.3199C21.87 39.2399 21.96 38.1799 22.14 37.1499C22.17 36.9899 22.2 36.8199 22.23 36.6599C22.79 33.7899 23.99 31.1499 25.68 28.8899C25.78 28.7599 25.88 28.6299 25.99 28.4999C27.75 26.2799 29.99 24.4499 32.55 23.1899C32.7 23.1199 32.85 23.0499 33 22.9799C35.42 21.8599 38.12 21.2299 40.96 21.2299C41.06 21.2299 41.16 21.2299 41.26 21.2299C41.43 21.2299 41.59 21.2299 41.76 21.2399C44.71 21.3599 47.48 22.1499 49.94 23.4699C50.09 23.5499 50.23 23.6299 50.37 23.7099C52.88 25.1399 55.04 27.1199 56.68 29.4899C56.77 29.6299 56.87 29.7699 56.96 29.8999C58.52 32.2999 59.56 35.0599 59.91 38.0299C59.93 38.1899 59.95 38.3599 59.96 38.5199C60.01 39.0999 60.04 39.6899 60.04 40.2899C60.04 42.7199 59.58 45.0499 58.75 47.1899C58.69 47.3399 58.63 47.4999 58.57 47.6499C57.41 50.4199 55.61 52.8499 53.37 54.7799C53.24 54.8899 53.12 54.9999 52.99 55.0999C52.14 55.7999 51.22 56.4199 50.25 56.9599C50.18 56.9999 50.11 57.0399 50.04 57.0799C48.38 57.9799 46.58 58.6399 44.68 59.0099C44.49 59.0499 44.31 59.0799 44.12 59.1099C43.17 59.2699 42.2 59.3599 41.21 59.3699C41.14 59.3699 41.08 59.3699 41.01 59.3699C41 59.3699 40.98 59.3699 40.97 59.3699C39.14 59.3699 37.36 59.0999 35.68 58.6199C35.52 58.5699 35.36 58.5299 35.2 58.4799L35.19 58.5099Z" fill="#F7C556"/>
<path d="M59.95 38.54C59.93 38.37 59.92 38.21 59.9 38.05C59.55 35.08 58.51 32.31 56.95 29.92C56.86 29.78 56.77 29.64 56.67 29.51C55.03 27.14 52.88 25.16 50.36 23.73C50.22 23.65 50.07 23.57 49.93 23.49C47.47 22.17 44.7 21.38 41.75 21.26C41.58 21.26 41.42 21.25 41.25 21.25C41.15 21.25 41.05 21.25 40.95 21.25C38.11 21.25 35.41 21.88 32.99 23C32.84 23.07 32.69 23.14 32.54 23.21C29.97 24.47 27.74 26.3 25.98 28.52C25.88 28.65 25.77 28.78 25.67 28.91C23.98 31.17 22.78 33.81 22.22 36.68C22.19 36.84 22.16 37.01 22.13 37.17C21.96 38.2 21.86 39.26 21.86 40.34C21.86 42.22 22.14 44.03 22.64 45.74C22.69 45.9 22.74 46.06 22.79 46.22C23.71 49.05 25.27 51.58 27.29 53.66C27.41 53.78 27.52 53.9 27.64 54.01C29.74 56.06 32.31 57.62 35.18 58.53C35.34 58.58 35.5 58.62 35.66 58.67C37.34 59.15 39.11 59.42 40.95 59.42C40.96 59.42 40.98 59.42 40.99 59.42C41.06 59.42 41.12 59.42 41.19 59.42C42.18 59.41 43.15 59.32 44.1 59.16C44.29 59.13 44.48 59.1 44.66 59.06C46.56 58.68 48.37 58.02 50.02 57.13C50.09 57.09 50.16 57.05 50.23 57.01C51.2 56.47 52.11 55.85 52.97 55.15C53.1 55.05 53.22 54.94 53.35 54.83C55.6 52.9 57.39 50.47 58.55 47.7C58.61 47.55 58.67 47.39 58.73 47.24C59.56 45.1 60.02 42.77 60.02 40.34C60.02 39.74 59.99 39.15 59.94 38.57L59.95 38.54Z" fill="#E8AE46"/>
</g>
<path d="M20.13 33.6103C19.96 34.2803 19.81 34.9603 19.71 35.6503C19.67 35.9203 19.63 36.2003 19.6 36.4703C19.52 37.2203 19.47 37.9903 19.47 38.7603C19.47 39.7103 19.54 40.6503 19.66 41.5703C19.7 41.8803 19.75 42.1803 19.81 42.4803C20.23 44.7803 21.04 46.9403 22.16 48.9103C22.3 49.1603 22.45 49.4003 22.6 49.6403C22.74 49.8603 22.88 50.0803 23.03 50.3003C23.24 50.6003 23.45 50.9003 23.67 51.1903C25.09 53.0603 26.83 54.6803 28.8 55.9803C29.15 56.2103 29.52 56.4403 29.89 56.6503C31.65 57.6703 33.57 58.4403 35.61 58.9103C35.93 58.9803 36.24 59.0503 36.56 59.1103C36.79 59.1503 37.03 59.1903 37.27 59.2303C37.54 59.2703 37.81 59.3003 38.09 59.3403C38.86 59.4203 39.64 59.4703 40.43 59.4703C41.86 59.4703 43.26 59.3303 44.62 59.0503C44.93 58.9903 45.24 58.9203 45.55 58.8403C46.16 58.6903 46.75 58.5103 47.34 58.3103C47.6 58.2203 47.85 58.1303 48.11 58.0303C50.34 57.1603 52.38 55.9203 54.16 54.4003C54.36 54.2303 54.56 54.0503 54.75 53.8703C55 53.6303 55.25 53.3903 55.49 53.1503C55.68 52.9503 55.87 52.7603 56.05 52.5503C57.14 51.3403 58.09 50.0103 58.88 48.5703C59.02 48.3203 59.15 48.0603 59.28 47.8003C59.5 47.3403 59.71 46.8803 59.9 46.4103C60 46.1703 60.09 45.9203 60.18 45.6703C60.76 44.0603 61.14 42.3603 61.3 40.6003C61.33 40.2803 61.35 39.9703 61.36 39.6503C61.34 39.6403 61.33 39.6303 61.31 39.6103C61.33 39.6103 61.34 39.6103 61.36 39.6103C61.37 39.3303 61.38 39.0403 61.38 38.7603C61.38 36.4403 60.99 34.2003 60.27 32.1203C60.17 31.8203 60.06 31.5303 59.94 31.2303C59.78 30.8303 59.61 30.4403 59.43 30.0503C59.3 29.7703 59.16 29.5003 59.02 29.2303C58.16 27.5903 57.08 26.0803 55.82 24.7403C55.62 24.5303 55.42 24.3203 55.21 24.1203C54.64 23.5503 54.03 23.0203 53.39 22.5203C53.17 22.3503 52.95 22.1803 52.72 22.0203C51.06 20.8303 49.22 19.8703 47.24 19.1903C46.95 19.0903 46.67 19.0003 46.38 18.9203C45.47 18.6503 44.53 18.4403 43.56 18.3003C43.29 18.2603 43.02 18.2303 42.75 18.2003C41.98 18.1203 41.2 18.0703 40.41 18.0703C38.81 18.0703 37.25 18.2503 35.75 18.5903C35.43 18.6603 35.11 18.7403 34.79 18.8303C33.43 19.2003 32.13 19.7103 30.9 20.3303C30.67 20.4503 30.44 20.5703 30.21 20.7003C28.1 21.8603 26.22 23.3803 24.64 25.1603C24.46 25.3703 24.27 25.5803 24.1 25.8003C23.86 26.1003 23.62 26.4003 23.39 26.7203C23.2 26.9803 23.02 27.2403 22.84 27.5103C21.77 29.1403 20.92 30.9303 20.34 32.8303C20.26 33.0903 20.18 33.3603 20.11 33.6303L20.13 33.6103ZM42.56 44.1203C41.86 44.2203 41.15 44.3303 40.45 44.4303C40.39 44.0703 40.33 43.7203 40.28 43.3603C40.73 43.2903 41.19 43.2303 41.64 43.1603C40.34 40.0603 39.64 36.7403 39.61 33.3703C39.97 33.3703 40.34 33.3703 40.7 33.4103C40.74 36.8203 41.47 40.2003 42.89 43.3203C43.02 43.6003 42.95 44.0703 42.56 44.1203ZM54.65 33.4403L53.4 33.4803C51.64 32.2803 48.54 30.9503 45.74 33.7003L44.51 33.7303C48.92 27.4703 54.65 33.4403 54.65 33.4403ZM51.7 43.5903C51.7 42.5203 52.57 41.6603 53.63 41.6603C54.69 41.6603 55.56 42.5303 55.56 43.5903C55.56 44.6503 54.69 45.5203 53.63 45.5203C52.57 45.5203 51.7 44.6503 51.7 43.5903ZM44.36 36.6003C44.36 36.6003 46.27 33.9903 49.4 34.1603C50.76 34.2303 52.36 34.8203 54.13 36.3803C54.13 36.3803 52.4 38.7403 49.58 38.8803C48.11 38.9503 46.34 38.4103 44.36 36.6103V36.6003ZM35.82 33.8703L34.57 33.9103C32.81 32.7103 29.71 31.3803 26.91 34.1303L25.68 34.1603C30.09 27.9003 35.82 33.8703 35.82 33.8703ZM25.93 36.9703C25.93 36.9703 27.84 34.3603 30.97 34.5303C32.33 34.6003 33.93 35.1903 35.7 36.7503C35.7 36.7503 33.97 39.1103 31.15 39.2503C29.68 39.3203 27.91 38.7803 25.93 36.9803V36.9703ZM24.32 43.8103C24.32 42.7403 25.19 41.8803 26.25 41.8803C27.31 41.8803 28.18 42.7503 28.18 43.8103C28.18 44.8703 27.31 45.7403 26.25 45.7403C25.19 45.7403 24.32 44.8703 24.32 43.8103Z" fill="#E8AE46"/>
<path d="M49.41 34.1603C48.84 35.0303 48.08 36.8203 49.59 38.8703C48.12 38.9403 46.35 38.4003 44.37 36.6003C44.37 36.6003 46.28 33.9903 49.41 34.1603Z" fill="#F5F8E3"/>
<path d="M49.41 34.1602C50.77 34.2302 52.37 34.8202 54.14 36.3802C54.14 36.3802 52.41 38.7402 49.59 38.8802C48.08 36.8302 48.84 35.0302 49.41 34.1702V34.1602Z" fill="#354C36"/>
<path d="M30.97 34.5202C30.4 35.3902 29.64 37.1802 31.15 39.2302C29.68 39.3002 27.91 38.7602 25.93 36.9602C25.93 36.9602 27.84 34.3502 30.97 34.5202Z" fill="#F5F8E3"/>
<path d="M30.97 34.5205C32.33 34.5905 33.93 35.1805 35.7 36.7405C35.7 36.7405 33.97 39.1005 31.15 39.2405C29.64 37.1905 30.4 35.3905 30.97 34.5305V34.5205Z" fill="#354C36"/>
<path d="M42.56 44.1201C41.86 44.2201 41.15 44.3301 40.45 44.4301C40.39 44.0701 40.33 43.7201 40.28 43.3601C40.73 43.2901 41.19 43.2301 41.64 43.1601C40.34 40.0601 39.64 36.7401 39.61 33.3701C39.97 33.3701 40.34 33.3701 40.7 33.4101C40.74 36.8201 41.47 40.2001 42.89 43.3201C43.02 43.6001 42.95 44.0701 42.56 44.1201Z" fill="#354C36"/>
<path d="M26.25 45.7404C27.3159 45.7404 28.18 44.8763 28.18 43.8104C28.18 42.7445 27.3159 41.8804 26.25 41.8804C25.1841 41.8804 24.32 42.7445 24.32 43.8104C24.32 44.8763 25.1841 45.7404 26.25 45.7404Z" fill="#B72D48"/>
<path d="M53.64 45.5202C54.7059 45.5202 55.57 44.6561 55.57 43.5901C55.57 42.5242 54.7059 41.6602 53.64 41.6602C52.5741 41.6602 51.71 42.5242 51.71 43.5901C51.71 44.6561 52.5741 45.5202 53.64 45.5202Z" fill="#B72D48"/>
<path d="M26.91 34.1302L25.68 34.1602C30.09 27.9002 35.82 33.8702 35.82 33.8702L34.57 33.9102C32.81 32.7102 29.71 31.3802 26.91 34.1302Z" fill="#354C36"/>
<path d="M45.74 33.6903L44.51 33.7203C48.92 27.4603 54.65 33.4303 54.65 33.4303L53.4 33.4703C51.64 32.2703 48.54 30.9403 45.74 33.6903Z" fill="#354C36"/>
<path d="M39.08 50.2702C39.11 49.9902 39.14 49.6602 39.15 49.6102C39.15 49.5002 39.92 48.8202 39.92 48.8202C39.92 48.8202 40.54 49.5302 40.58 49.5502C40.62 49.5802 41.26 48.7202 41.26 48.7202L41.91 49.1802C41.91 49.1802 42.34 49.9102 42.53 50.3502C41.38 50.5602 40.22 50.5402 39.1 50.2702H39.08Z" fill="#B72D48"/>
<path d="M39.09 51.0803C40.18 51.3103 41.3 51.3403 42.4 51.1603L42.04 52.1803C42.04 52.1803 40.92 52.4103 40.85 52.4403C40.78 52.4703 39.62 52.2103 39.62 52.2103L39.09 51.0703V51.0803Z" fill="#B72D48"/>
<path d="M39.09 51.0804C38.69 50.9904 38.29 50.8804 37.9 50.7404C37.93 50.4704 37.96 50.2104 37.98 49.9404C38.34 50.0804 38.71 50.1904 39.09 50.2804C40.22 50.5404 41.38 50.5704 42.52 50.3604C42.7 50.3304 42.87 50.2904 43.05 50.2504C43.1 50.2404 43.14 50.2404 43.19 50.2404C43.23 50.4904 43.26 50.7404 43.28 51.0004C43.28 51.0004 43.27 51.0004 43.26 51.0004C42.98 51.0704 42.69 51.1304 42.41 51.1704C41.31 51.3404 40.19 51.3204 39.1 51.0904L39.09 51.0804Z" fill="#354C36"/>
</svg>
