<svg width="82" height="81" viewBox="0 0 82 81" fill="none" xmlns="http://www.w3.org/2000/svg">
<mask id="mask0_11_5614" style="mask-type:luminance" maskUnits="userSpaceOnUse" x="0" y="0" width="82" height="81">
<path d="M81.3 0H0.399994V80.62H81.3V0Z" fill="white"/>
</mask>
<g mask="url(#mask0_11_5614)">
<path d="M0.620001 43.0099L1.00001 42.6999C4.59001 39.7599 8.29001 36.7299 13.36 36.8299C15 36.8699 16.59 37.1799 18.12 37.4799C18.77 37.6099 19.4 37.7299 20.03 37.8299C18.71 36.6999 17.57 35.3599 16.46 34.0599C15.82 33.3099 15.16 32.5299 14.48 31.8099C14.13 31.4399 13.8 31.0699 13.46 30.6999C12.31 29.4199 11.23 28.2199 9.74001 27.3399C7.91001 26.2599 5.70001 25.6299 3.75001 25.0699C3.47001 24.9899 3.29001 24.7499 3.30001 24.4599C3.31001 24.1799 3.5 23.9499 3.78 23.8999L4.26 23.7999C8.81 22.8599 13.51 21.8899 17.93 24.3499C19.36 25.1399 20.63 26.1599 21.85 27.1399C22.37 27.5499 22.87 27.9599 23.38 28.3399C22.74 26.7199 22.35 25.0099 21.97 23.3399C21.75 22.3799 21.53 21.3899 21.26 20.4299C21.12 19.9399 21 19.4599 20.88 18.9699C20.46 17.3099 20.06 15.7299 19.15 14.2699C18.03 12.4599 16.37 10.8699 14.9 9.46987C14.69 9.26987 14.65 8.96987 14.79 8.71987C14.93 8.47987 15.21 8.35988 15.48 8.43988L15.96 8.57987C20.42 9.85987 25.03 11.1899 27.81 15.4199C28.71 16.7899 29.36 18.2699 29.98 19.7099C30.25 20.3199 30.5 20.9099 30.78 21.4799C30.96 19.7499 31.41 18.0499 31.85 16.3999C32.1 15.4499 32.37 14.4699 32.57 13.4899C32.67 12.9899 32.79 12.4999 32.91 12.0199C33.31 10.3499 33.69 8.76988 33.56 7.04988C33.41 4.92988 32.67 2.74988 32.03 0.829875C31.94 0.559875 32.03 0.269876 32.28 0.119876C32.52 -0.0301238 32.81 -0.000122011 33.02 0.199878L33.38 0.539874C36.73 3.74987 40.2 7.06988 40.7 12.0999C40.86 13.7299 40.74 15.3399 40.63 16.8999C40.58 17.5599 40.54 18.2099 40.51 18.8399C41.48 17.3899 42.67 16.0899 43.82 14.8399C44.49 14.1199 45.18 13.3699 45.81 12.5999C46.13 12.2099 46.46 11.8299 46.79 11.4599C47.92 10.1699 48.99 8.93987 49.68 7.35987C50.53 5.40987 50.89 3.13987 51.21 1.13987C51.26 0.859873 51.48 0.649876 51.76 0.619876C52.04 0.589876 52.29 0.75988 52.38 1.02988L52.54 1.49987C54.02 5.89987 55.55 10.4499 53.64 15.1399C53.02 16.6599 52.17 18.0299 51.35 19.3599C51 19.9199 50.66 20.4699 50.34 21.0199C51.87 20.1899 53.53 19.5899 55.13 19.0199C56.06 18.6899 57.02 18.3499 57.94 17.9599C58.41 17.7599 58.88 17.5799 59.34 17.3999C60.94 16.7799 62.45 16.1899 63.8 15.1099C65.46 13.7799 66.83 11.9399 68.05 10.3099C68.22 10.0799 68.51 9.99987 68.78 10.1099C69.04 10.2199 69.18 10.4799 69.14 10.7599L69.06 11.2499C68.32 15.8299 67.56 20.5699 63.7 23.8399C62.45 24.8999 61.05 25.7199 59.71 26.5099C59.14 26.8499 58.58 27.1699 58.05 27.5099C59.79 27.4799 61.53 27.7199 63.22 27.9599C64.2 28.0999 65.2 28.2399 66.2 28.3299C66.71 28.3699 67.2 28.4299 67.7 28.4899C69.41 28.6899 71.02 28.8699 72.71 28.5399C74.8 28.1299 76.87 27.1399 78.7 26.2699C78.96 26.1399 79.26 26.2099 79.44 26.4299C79.62 26.6499 79.62 26.9499 79.45 27.1699L79.15 27.5699C76.37 31.2799 73.49 35.1299 68.55 36.2199C66.95 36.5799 65.33 36.6599 63.77 36.7299C63.11 36.7599 62.46 36.7899 61.83 36.8499C63.38 37.6399 64.82 38.6599 66.2 39.6599C67 40.2299 67.83 40.8299 68.66 41.3699C69.09 41.6399 69.5 41.9299 69.91 42.2099C71.33 43.1799 72.67 44.0899 74.33 44.5799C76.37 45.1899 78.67 45.2799 80.69 45.3499C80.98 45.3599 81.21 45.5599 81.27 45.8399C81.33 46.1199 81.19 46.3799 80.94 46.4999L80.5 46.7099C77.23 48.2699 73.88 49.8699 70.24 49.8699C69.21 49.8699 68.17 49.7399 67.09 49.4499C65.51 49.0199 64.04 48.3399 62.62 47.6799C62.02 47.3999 61.43 47.1299 60.85 46.8799C61.86 48.2999 62.65 49.8699 63.41 51.3899C63.85 52.2699 64.31 53.1799 64.8 54.0499C65.05 54.4899 65.29 54.9299 65.52 55.3699C66.33 56.8899 67.09 58.3199 68.33 59.5199C69.85 61.0099 71.85 62.1499 73.6 63.1599C73.85 63.2999 73.96 63.5799 73.89 63.8599C73.81 64.1199 73.58 64.2899 73.31 64.2899C73.31 64.2899 73.29 64.2899 73.28 64.2899L72.79 64.2699C68.15 64.0899 63.36 63.9099 59.65 60.4699C58.45 59.3499 57.46 58.0699 56.51 56.8299C56.11 56.2999 55.71 55.7899 55.31 55.2999C55.55 57.0299 55.52 58.7899 55.48 60.4899C55.46 61.4699 55.44 62.4899 55.48 63.4899C55.5 63.9999 55.5 64.4999 55.5 64.9999C55.51 66.7199 55.52 68.3399 56.06 69.9799C56.72 71.9999 57.95 73.9399 59.04 75.6599C59.19 75.8999 59.17 76.2099 58.97 76.4099C58.85 76.5299 58.7 76.5999 58.54 76.5999C58.44 76.5999 58.33 76.5699 58.23 76.5199L57.8 76.2699C53.78 73.9599 49.62 71.5599 47.93 66.7899C47.38 65.2399 47.11 63.6499 46.84 62.1099C46.73 61.4599 46.62 60.8199 46.49 60.1999C45.9 61.8399 45.05 63.3799 44.23 64.8799C43.76 65.7399 43.26 66.6299 42.83 67.5299C42.61 67.9899 42.38 68.4299 42.15 68.8799C41.36 70.4099 40.62 71.8499 40.33 73.5499C39.97 75.6499 40.16 77.9399 40.33 79.9599C40.35 80.2499 40.19 80.4999 39.92 80.5899C39.86 80.6099 39.79 80.6199 39.72 80.6199C39.52 80.6199 39.33 80.5199 39.22 80.3399L38.95 79.9199C36.46 75.9999 33.89 71.9499 34.62 66.9399C34.85 65.3199 35.35 63.7799 35.84 62.2899C36.04 61.6599 36.24 61.0499 36.42 60.4399C35.13 61.6099 33.67 62.5899 32.25 63.5299C31.43 64.0699 30.58 64.6399 29.78 65.2299C29.37 65.5299 28.96 65.8199 28.55 66.1099C27.14 67.0999 25.82 68.0299 24.77 69.3999C23.48 71.0899 22.58 73.2099 21.79 75.0699C21.69 75.2999 21.47 75.4499 21.23 75.4499C21.2 75.4499 21.16 75.4499 21.13 75.4499C20.85 75.4099 20.65 75.1899 20.63 74.8999L20.59 74.4099C20.21 69.7799 19.81 64.9999 22.78 60.8999C23.74 59.5699 24.9 58.4399 26.02 57.3499C26.49 56.8899 26.95 56.4399 27.4 55.9799C25.72 56.4199 23.97 56.6099 22.27 56.7799C21.29 56.8799 20.28 56.9799 19.29 57.1399C18.79 57.2199 18.29 57.2799 17.8 57.3499C16.1 57.5699 14.49 57.7799 12.92 58.4999C10.99 59.3999 9.21 60.8499 7.64 62.1399C7.52 62.2299 7.39001 62.2799 7.25001 62.2799C7.12001 62.2799 6.99001 62.2399 6.88001 62.1599C6.66001 61.9899 6.58001 61.6999 6.69001 61.4399L6.88001 60.9899C8.69001 56.7199 10.56 52.2999 15.1 50.0499C16.57 49.3199 18.12 48.8599 19.62 48.4099C20.26 48.2199 20.87 48.0299 21.48 47.8299C19.78 47.4399 18.15 46.7899 16.57 46.1499C15.66 45.7799 14.71 45.3999 13.77 45.0799C13.29 44.9199 12.82 44.7399 12.35 44.5699C10.74 43.9699 9.22001 43.4099 7.49001 43.3199C5.36001 43.2199 3.11001 43.6799 1.13001 44.0899C0.85001 44.1499 0.580002 44.0099 0.450002 43.7599C0.330002 43.5099 0.400006 43.2199 0.610006 43.0399L0.620001 43.0099ZM46.61 58.5099C49.47 57.5999 52.04 56.0299 54.15 53.9899C54.27 53.8699 54.39 53.7599 54.5 53.6399C56.53 51.5599 58.09 49.0199 59 46.1999C59.05 46.0399 59.1 45.8799 59.15 45.7199C59.66 44.0099 59.93 42.1899 59.93 40.3199C59.93 39.2399 59.84 38.1799 59.66 37.1499C59.63 36.9899 59.6 36.8199 59.57 36.6599C59.01 33.7899 57.81 31.1499 56.12 28.8899C56.02 28.7599 55.92 28.6299 55.81 28.4999C54.05 26.2799 51.81 24.4499 49.25 23.1899C49.1 23.1199 48.95 23.0499 48.8 22.9799C46.38 21.8599 43.68 21.2299 40.84 21.2299C40.74 21.2299 40.64 21.2299 40.54 21.2299C40.37 21.2299 40.21 21.2299 40.04 21.2399C37.09 21.3599 34.32 22.1499 31.86 23.4699C31.71 23.5499 31.57 23.6299 31.43 23.7099C28.92 25.1399 26.76 27.1199 25.12 29.4899C25.03 29.6299 24.93 29.7699 24.84 29.8999C23.28 32.2999 22.24 35.0599 21.89 38.0299C21.87 38.1899 21.85 38.3599 21.84 38.5199C21.79 39.0999 21.76 39.6899 21.76 40.2899C21.76 42.7199 22.22 45.0499 23.05 47.1899C23.11 47.3399 23.17 47.4999 23.23 47.6499C24.39 50.4199 26.19 52.8499 28.43 54.7799C28.56 54.8899 28.68 54.9999 28.81 55.0999C29.66 55.7999 30.58 56.4199 31.55 56.9599C31.62 56.9999 31.69 57.0399 31.76 57.0799C33.42 57.9799 35.22 58.6399 37.12 59.0099C37.31 59.0499 37.49 59.0799 37.68 59.1099C38.63 59.2699 39.6 59.3599 40.59 59.3699C40.66 59.3699 40.72 59.3699 40.79 59.3699C40.8 59.3699 40.82 59.3699 40.83 59.3699C42.66 59.3699 44.44 59.0999 46.12 58.6199C46.28 58.5699 46.44 58.5299 46.6 58.4799L46.61 58.5099Z" fill="#F7C556"/>
<path d="M21.84 38.54C21.86 38.37 21.87 38.21 21.89 38.05C22.24 35.08 23.28 32.31 24.84 29.92C24.93 29.78 25.02 29.64 25.12 29.51C26.76 27.14 28.91 25.16 31.43 23.73C31.57 23.65 31.72 23.57 31.86 23.49C34.32 22.17 37.09 21.38 40.04 21.26C40.21 21.26 40.37 21.25 40.54 21.25C40.64 21.25 40.74 21.25 40.84 21.25C43.68 21.25 46.38 21.88 48.8 23C48.95 23.07 49.1 23.14 49.25 23.21C51.82 24.47 54.05 26.3 55.81 28.52C55.91 28.65 56.02 28.78 56.12 28.91C57.81 31.17 59.01 33.81 59.57 36.68C59.6 36.84 59.63 37.01 59.66 37.17C59.83 38.2 59.93 39.26 59.93 40.34C59.93 42.22 59.65 44.03 59.15 45.74C59.1 45.9 59.05 46.06 59 46.22C58.08 49.05 56.52 51.58 54.5 53.66C54.38 53.78 54.27 53.9 54.15 54.01C52.05 56.06 49.48 57.62 46.61 58.53C46.45 58.58 46.29 58.62 46.13 58.67C44.45 59.15 42.68 59.42 40.84 59.42C40.83 59.42 40.81 59.42 40.8 59.42C40.73 59.42 40.67 59.42 40.6 59.42C39.61 59.41 38.64 59.32 37.69 59.16C37.5 59.13 37.31 59.1 37.13 59.06C35.23 58.68 33.42 58.02 31.77 57.13C31.7 57.09 31.63 57.05 31.56 57.01C30.59 56.47 29.68 55.85 28.82 55.15C28.69 55.05 28.57 54.94 28.44 54.83C26.19 52.9 24.4 50.47 23.24 47.7C23.18 47.55 23.12 47.39 23.06 47.24C22.23 45.1 21.77 42.77 21.77 40.34C21.77 39.74 21.8 39.15 21.85 38.57L21.84 38.54Z" fill="#E8AE46"/>
</g>
<path d="M58.67 29.8499C58.41 29.4499 58.1301 29.0699 57.8401 28.6899C56.1501 26.4999 54.0101 24.6499 51.5601 23.2799C51.0001 22.9599 50.42 22.6699 49.82 22.4099C47.47 21.3699 44.88 20.7499 42.16 20.6499C41.9 20.6499 41.6301 20.6299 41.3701 20.6299C38.4901 20.6299 35.75 21.2099 33.25 22.2599C33.04 22.3499 32.8301 22.4399 32.6301 22.5299C30.1601 23.6699 27.95 25.2699 26.12 27.2299C25.94 27.4299 25.76 27.6299 25.58 27.8299C23.97 29.6999 22.7 31.8499 21.86 34.1999C21.73 34.5599 21.61 34.9199 21.51 35.2799C20.98 37.0699 20.7 38.9599 20.7 40.9099C20.7 41.7799 20.76 42.6299 20.86 43.4699C20.89 43.6899 20.9201 43.8999 20.9601 44.1199C21.4301 46.9999 22.51 49.6799 24.08 52.0199C24.21 52.2099 24.34 52.3999 24.47 52.5799C25.74 54.3499 27.29 55.9099 29.06 57.1999C29.2 57.2999 29.3401 57.3999 29.4901 57.4999C31.8201 59.1199 34.51 60.2699 37.42 60.8199C37.69 60.8699 37.97 60.9199 38.25 60.9599C39.27 61.1099 40.32 61.1899 41.38 61.1899C42.76 61.1899 44.11 61.0599 45.41 60.7999C45.69 60.7499 45.9701 60.6799 46.2401 60.6199C48.5901 60.0599 50.7801 59.1099 52.7401 57.8399C52.9001 57.7399 53.0501 57.6399 53.2101 57.5299C55.2801 56.1099 57.0701 54.3299 58.4901 52.2799C58.6301 52.0699 58.77 51.8599 58.91 51.6499C60.09 49.7999 60.98 47.7499 61.5 45.5599C61.53 45.4299 61.5601 45.2899 61.5901 45.1599C61.8901 43.7899 62.05 42.3699 62.05 40.9099C62.05 40.0599 62 39.2299 61.89 38.3999C61.84 37.9999 61.78 37.6099 61.7 37.2199C61.2 34.5399 60.15 32.0399 58.69 29.8399L58.67 29.8499ZM37.44 44.8199C39.02 41.9599 39.96 38.7999 40.19 35.5499C40.49 35.5499 40.78 35.5699 41.08 35.5799C40.85 38.8299 39.95 41.9899 38.42 44.8699C38.97 45.1399 39.54 45.2999 40.16 45.3299C40.2 45.3299 40.2401 45.3399 40.2801 45.3499C40.2101 45.6399 40.1501 45.9199 40.0901 46.2099C39.1901 46.1499 38.3601 45.8899 37.5901 45.4299C37.3801 45.2999 37.3101 45.0299 37.4301 44.8199H37.44ZM24.3501 35.8199C24.3501 35.8199 29.19 32.5899 35.47 35.8199H24.3501ZM27.8801 47.3299C26.8301 47.3299 25.97 46.4799 25.97 45.4199C25.97 44.3599 26.8201 43.5099 27.8801 43.5099C28.9401 43.5099 29.79 44.3599 29.79 45.4199C29.79 46.4799 28.9401 47.3299 27.8801 47.3299ZM31.14 40.7599C29.5 40.9699 27.41 40.7599 25.11 39.4099C25.11 39.4099 27.43 36.7699 30.76 37.2699C31.99 37.4499 33.37 38.0699 34.81 39.4099C34.81 39.4099 33.3901 40.4799 31.1301 40.7599H31.14ZM40.5901 54.2099L38.35 52.6599L38.4601 52.2799C37.9001 52.1899 37.34 52.0499 36.8 51.8699C36.87 51.5299 36.96 51.1899 37.05 50.8599C37.61 51.0499 38.18 51.1799 38.76 51.2699L39.14 49.9499L40.6 50.7099L42.2701 49.8399L42.5301 51.1199C43.2301 50.9599 43.91 50.7199 44.57 50.4099C44.71 50.7299 44.83 51.0499 44.95 51.3799C44.23 51.7099 43.49 51.9599 42.73 52.1399L42.8401 52.6599L40.6 54.2099H40.5901ZM54.83 47.3299C53.78 47.3299 52.92 46.4799 52.92 45.4199C52.92 44.3599 53.77 43.5099 54.83 43.5099C55.89 43.5099 56.7401 44.3599 56.7401 45.4199C56.7401 46.4799 55.89 47.3299 54.83 47.3299ZM53.0601 40.7599C51.4201 40.9699 49.3301 40.7599 47.0301 39.4099C47.0301 39.4099 49.3501 36.7699 52.6801 37.2699C53.9101 37.4499 55.29 38.0699 56.73 39.4099C56.73 39.4099 55.31 40.4799 53.05 40.7599H53.0601ZM46.3701 35.8199C46.3701 35.8199 51.2101 32.5899 57.4901 35.8199H46.3701Z" fill="#E8AE46"/>
<path d="M53.0601 40.76C55.3201 40.48 56.7401 39.41 56.7401 39.41C55.2901 38.07 53.92 37.46 52.69 37.27C53.13 38.04 53.51 39.22 53.07 40.76H53.0601Z" fill="#F5F8E3"/>
<path d="M52.6801 37.2598C49.3501 36.7598 47.0301 39.3998 47.0301 39.3998C49.3301 40.7498 51.4201 40.9598 53.0601 40.7498C53.5001 39.2098 53.1201 38.0198 52.6801 37.2598Z" fill="#354C36"/>
<path d="M31.14 40.76C33.4 40.48 34.82 39.41 34.82 39.41C33.37 38.07 32.0001 37.46 30.7701 37.27C31.2101 38.04 31.59 39.22 31.15 40.76H31.14Z" fill="#F5F8E3"/>
<path d="M30.76 37.2598C27.43 36.7598 25.11 39.3998 25.11 39.3998C27.41 40.7498 29.5 40.9598 31.14 40.7498C31.58 39.2098 31.2 38.0198 30.76 37.2598Z" fill="#354C36"/>
<path d="M54.83 47.3298C55.8849 47.3298 56.7401 46.4746 56.7401 45.4198C56.7401 44.3649 55.8849 43.5098 54.83 43.5098C53.7752 43.5098 52.92 44.3649 52.92 45.4198C52.92 46.4746 53.7752 47.3298 54.83 47.3298Z" fill="#FCD9D9"/>
<path d="M27.8801 47.3298C28.9349 47.3298 29.79 46.4746 29.79 45.4198C29.79 44.3649 28.9349 43.5098 27.8801 43.5098C26.8252 43.5098 25.97 44.3649 25.97 45.4198C25.97 46.4746 26.8252 47.3298 27.8801 47.3298Z" fill="#FCD9D9"/>
<path d="M38.4601 52.2899L38.35 52.6699L40.5901 54.2199L42.83 52.6699L42.72 52.1499C41.32 52.4699 39.87 52.5199 38.45 52.2899H38.4601Z" fill="#B72D48"/>
<path d="M42.5201 51.1301L42.26 49.8501L40.5901 50.7201L39.13 49.9601L38.75 51.2801C40.01 51.4701 41.2801 51.4201 42.5201 51.1401V51.1301Z" fill="#B72D48"/>
<path d="M42.72 52.1397C43.48 51.9697 44.22 51.7097 44.94 51.3797C44.82 51.0497 44.6901 50.7297 44.5601 50.4097C43.9001 50.7197 43.2201 50.9597 42.5201 51.1197C41.2901 51.3997 40.01 51.4497 38.75 51.2597C38.17 51.1697 37.6 51.0397 37.04 50.8497C36.95 51.1897 36.86 51.5197 36.79 51.8597C37.34 52.0397 37.89 52.1797 38.45 52.2697C39.87 52.4997 41.32 52.4497 42.72 52.1297V52.1397Z" fill="#354C36"/>
<path d="M24.3501 35.8198H35.47C29.18 32.5898 24.3501 35.8198 24.3501 35.8198Z" fill="#354C36"/>
<path d="M46.3701 35.8198H57.4901C51.2001 32.5898 46.3701 35.8198 46.3701 35.8198Z" fill="#354C36"/>
<path d="M37.59 45.4298C38.36 45.8998 39.19 46.1498 40.09 46.2098C40.15 45.9198 40.2101 45.6298 40.2801 45.3498C40.2401 45.3398 40.2 45.3298 40.16 45.3298C39.54 45.2898 38.96 45.1398 38.42 44.8698C39.95 41.9898 40.85 38.8298 41.08 35.5798C40.78 35.5798 40.49 35.5598 40.19 35.5498C39.96 38.7998 39.02 41.9598 37.44 44.8198C37.32 45.0298 37.39 45.2998 37.6 45.4298H37.59Z" fill="#354C36"/>
</svg>
