<svg width="84" height="83" viewBox="0 0 84 83" fill="none" xmlns="http://www.w3.org/2000/svg">
<mask id="mask0_10_3513" style="mask-type:luminance" maskUnits="userSpaceOnUse" x="0" y="0" width="84" height="83">
<path d="M0 83H83.2844V0H0V83Z" fill="white"/>
</mask>
<g mask="url(#mask0_10_3513)">
<path d="M83.0558 38.7317L82.6495 39.0619C78.9678 42.0842 75.159 45.2081 69.9284 45.1066C68.2525 45.0558 66.6021 44.751 65.0278 44.4462C64.3676 44.3192 63.7074 44.1923 63.0473 44.0907C64.393 45.259 65.5864 46.6304 66.729 47.9765C67.3892 48.7385 68.0748 49.5512 68.7604 50.2877C69.1158 50.6687 69.4713 51.0496 69.8014 51.4306C70.9948 52.7513 72.0866 53.9958 73.6355 54.8847C75.5145 56.0022 77.7998 56.6371 79.8057 57.2213C80.085 57.2975 80.2627 57.5515 80.2627 57.8562C80.2627 58.1356 80.0596 58.3896 79.7549 58.4404L79.2471 58.542C74.575 59.5071 69.7253 60.4976 65.1802 57.9833C63.7075 57.1705 62.4125 56.1292 61.1429 55.1133C60.6097 54.6815 60.1018 54.2751 59.5686 53.8688C60.2288 55.545 60.635 57.2975 61.0159 59.0245C61.2444 60.015 61.473 61.031 61.7523 62.0215C61.9046 62.5295 62.0316 63.0374 62.1586 63.52C62.5902 65.2216 62.9965 66.8471 63.936 68.371C65.0786 70.225 66.8052 71.8758 68.3033 73.3235C68.5065 73.5267 68.5572 73.8315 68.4049 74.0855C68.2525 74.3394 67.9732 74.441 67.6939 74.3648L67.2115 74.2124C62.6156 72.8917 57.8674 71.5203 55.0235 67.1773C54.0841 65.755 53.4239 64.2311 52.7891 62.758C52.5098 62.123 52.2558 61.5135 51.9765 60.9293C51.7988 62.7072 51.3163 64.4597 50.8593 66.1614C50.6054 67.1519 50.3261 68.1424 50.123 69.1583C50.0214 69.6662 49.8944 70.1742 49.7675 70.6822C49.3612 72.4092 48.9803 74.0346 49.1073 75.7871C49.2597 77.9713 50.0214 80.2063 50.6816 82.1874C50.7831 82.4667 50.6816 82.7715 50.4276 82.9238C50.1737 83.0762 49.8691 83.0508 49.6659 82.8477L49.3104 82.4921C45.8572 79.1904 42.3024 75.7617 41.7691 70.5806C41.6168 68.9043 41.7184 67.228 41.8453 65.6279C41.8961 64.9422 41.9468 64.2819 41.9722 63.6216C40.982 65.12 39.7632 66.4407 38.5698 67.736C37.8842 68.4725 37.1732 69.2599 36.5131 70.0472C36.183 70.4536 35.8529 70.8345 35.4974 71.2155C34.3294 72.5362 33.2376 73.8061 32.5266 75.4315C31.6633 77.438 31.2824 79.7745 30.9523 81.8318C30.9015 82.1365 30.673 82.3397 30.3937 82.3651C30.089 82.3905 29.8605 82.2127 29.7589 81.9334L29.6066 81.4508C28.0831 76.93 26.5088 72.2314 28.4639 67.4058C29.0987 65.8312 29.9874 64.4343 30.8253 63.0628C31.1808 62.4787 31.5363 61.9199 31.8664 61.3611C30.2921 62.2247 28.5909 62.8342 26.9404 63.4184C25.9756 63.7485 25.0107 64.1041 24.0458 64.5104C23.5634 64.7136 23.0809 64.8914 22.5985 65.0946C20.948 65.7296 19.3992 66.3391 18.0026 67.4566C16.3014 68.8281 14.8795 70.7329 13.6353 72.3838C13.4575 72.6124 13.1528 72.714 12.8735 72.587C12.6196 72.4854 12.4673 72.206 12.518 71.9266L12.5942 71.4186C13.356 66.6947 14.1431 61.8183 18.1042 58.4658C19.3991 57.3737 20.8211 56.5355 22.2176 55.7228C22.8016 55.3673 23.3856 55.0371 23.9189 54.6815C22.1161 54.7069 20.3386 54.4529 18.5866 54.2244C17.571 54.072 16.5553 53.945 15.5142 53.8434C15.0064 53.7926 14.4732 53.7418 13.9653 53.691C12.2133 53.4878 10.5629 53.31 8.81086 53.6402C6.65257 54.0719 4.5197 55.0879 2.64072 55.9768C2.36142 56.1038 2.05671 56.0276 1.87897 55.799C1.70123 55.5704 1.70123 55.2657 1.87897 55.0371L2.18366 54.6307C5.0529 50.7957 7.99833 46.859 13.102 45.7161C14.7525 45.3605 16.4029 45.2589 18.028 45.1827C18.7136 45.1573 19.3737 45.1065 20.0339 45.0557C18.4343 44.243 16.9616 43.2017 15.5396 42.1604C14.7271 41.5763 13.8638 40.9667 13.0005 40.4079C12.5688 40.1286 12.1371 39.8238 11.7055 39.5444C10.2328 38.5539 8.86165 37.6142 7.16042 37.1063C5.05292 36.4713 2.6915 36.3951 0.60939 36.3189C0.304691 36.3189 0.0761781 36.1157 0.0253949 35.811C-0.0253882 35.5316 0.101543 35.2522 0.355459 35.1252L0.812527 34.8966C4.16421 33.2965 7.64287 31.6457 11.3754 31.6457C12.4419 31.6457 13.5083 31.7727 14.6255 32.0775C16.2506 32.5092 17.7741 33.2204 19.2214 33.9061C19.8308 34.1855 20.4402 34.4649 21.0496 34.7189C20.0086 33.2712 19.196 31.6457 18.4089 30.071C17.9518 29.1567 17.4948 28.217 16.9869 27.3281C16.733 26.8709 16.4791 26.4138 16.2506 25.9566C15.4127 24.4073 14.6255 22.9343 13.356 21.6898C11.7817 20.1659 9.72498 18.9722 7.92217 17.9309C7.66826 17.7785 7.54127 17.4991 7.61745 17.2197C7.69362 16.9404 7.92218 16.7626 8.20148 16.7626C8.20148 16.7626 8.20147 16.7626 8.22686 16.7626H8.73468C13.5083 16.9658 18.4343 17.1435 22.2684 20.6992C23.5126 21.8421 24.5283 23.1628 25.4931 24.4581C25.8994 24.9915 26.3056 25.5248 26.7373 26.0328C26.4834 24.2549 26.5342 22.4517 26.5596 20.6992C26.5596 19.6833 26.6104 18.642 26.5596 17.6007C26.5596 17.0673 26.5596 16.5594 26.5596 16.0515C26.5596 14.2736 26.5596 12.6228 25.9756 10.9211C25.29 8.83851 24.0204 6.83204 22.9032 5.07959C22.7508 4.82561 22.7762 4.52087 22.9794 4.31769C23.1063 4.1907 23.2587 4.11446 23.411 4.11446C23.5126 4.11446 23.6142 4.13986 23.7157 4.19065L24.1474 4.44465C28.2862 6.83204 32.5774 9.29562 34.304 14.1974C34.8626 15.7975 35.1419 17.4229 35.4212 19.023C35.5482 19.6833 35.6498 20.3437 35.7767 21.0041C36.3861 19.3278 37.2494 17.7277 38.1127 16.1784C38.5952 15.2895 39.103 14.3752 39.56 13.4609C39.7886 12.9784 40.0171 12.5211 40.271 12.064C41.0835 10.4893 41.8453 9.01629 42.15 7.26384C42.5309 5.10503 42.3277 2.74302 42.15 0.6604C42.15 0.355626 42.3023 0.101623 42.5817 3.19813e-05C42.6578 3.19813e-05 42.7086 -0.0253906 42.7848 -0.0253906C42.9879 -0.0253906 43.191 0.0762409 43.2926 0.254026L43.5719 0.685822C46.1365 4.72407 48.7772 8.88926 48.0409 14.045C47.7869 15.7213 47.2791 17.296 46.7967 18.8452C46.5935 19.5056 46.3904 20.1151 46.1872 20.7501C47.5076 19.531 49.0311 18.5405 50.4784 17.5753C51.3164 17.0166 52.2051 16.4324 53.0176 15.8229C53.4492 15.5181 53.8555 15.2133 54.2872 14.9085C55.7345 13.8926 57.1056 12.9275 58.1721 11.5307C59.4924 9.77821 60.4319 7.61935 61.2445 5.68912C61.346 5.46053 61.5746 5.30816 61.8285 5.30816C61.8539 5.30816 61.9046 5.30816 61.93 5.30816C62.2093 5.35896 62.4125 5.58754 62.4379 5.86692L62.4886 6.37491C62.8695 11.1243 63.2758 16.0515 60.2288 20.2675C59.2385 21.639 58.0451 22.8073 56.9025 23.9248C56.4201 24.4074 55.9376 24.8645 55.4806 25.3471C57.2072 24.8899 59.01 24.7121 60.762 24.5343C61.7777 24.4327 62.8187 24.3312 63.8344 24.1788C64.3422 24.1026 64.85 24.0264 65.3833 23.9756C67.1353 23.747 68.7858 23.5438 70.4108 22.7819C72.3914 21.8675 74.2196 20.369 75.8446 19.023C75.9716 18.9214 76.0985 18.8706 76.2509 18.8706C76.3778 18.8706 76.5048 18.9214 76.6318 18.9976C76.8603 19.1754 76.9365 19.4548 76.8349 19.7342L76.6318 20.1913C74.7782 24.5851 72.8484 29.1314 68.1764 31.4679C66.6529 32.2299 65.0786 32.687 63.5297 33.1696C62.8695 33.3727 62.2347 33.5506 61.6253 33.7537C63.3773 34.1601 65.0532 34.8204 66.6783 35.4808C67.6178 35.8617 68.5826 36.2427 69.5729 36.5729C70.0553 36.7506 70.5632 36.9285 71.0202 37.1063C72.6707 37.7158 74.2449 38.2999 76.0223 38.4015C78.206 38.5031 80.5167 38.0205 82.5734 37.6142C82.8781 37.5634 83.132 37.6904 83.259 37.9698C83.3859 38.2238 83.3097 38.5285 83.0812 38.7063L83.0558 38.7317ZM35.7006 22.7564C32.7551 23.6962 30.1144 25.2963 27.9307 27.4043C27.8037 27.5313 27.6768 27.6328 27.5752 27.7598C25.4931 29.8932 23.8934 32.5093 22.9286 35.43C22.8778 35.5824 22.827 35.7602 22.7762 35.9126C22.243 37.6904 21.9637 39.5445 21.9637 41.4747C21.9637 42.5922 22.0653 43.6843 22.243 44.7256C22.2684 44.9034 22.2938 45.0557 22.3446 45.2335C22.9286 48.1797 24.1474 50.8972 25.8994 53.2338C26.001 53.3608 26.1025 53.5132 26.2041 53.6402C28.0069 55.926 30.3175 57.8055 32.9583 59.1008C33.1106 59.177 33.2629 59.2531 33.4153 59.3293C35.9037 60.4722 38.6967 61.1326 41.6168 61.1326C41.7183 61.1326 41.8199 61.1326 41.9215 61.1326C42.0992 61.1326 42.2516 61.1326 42.4293 61.1326C45.4509 61.0056 48.3201 60.1929 50.8593 58.8468C51.0116 58.7706 51.164 58.669 51.3164 58.5928C53.9063 57.1197 56.1154 55.0879 57.8166 52.6497C57.9182 52.4973 58.0197 52.3703 58.0959 52.2179C59.6956 49.7543 60.762 46.9098 61.1429 43.8367C61.1429 43.6589 61.1937 43.5065 61.1937 43.3287C61.2445 42.7191 61.2698 42.1096 61.2698 41.5C61.2698 38.9857 60.7874 36.5983 59.9495 34.3887C59.8987 34.2363 59.8225 34.0585 59.7718 33.9061C58.5784 31.0616 56.7248 28.5471 54.4141 26.5661C54.2872 26.4645 54.1602 26.3376 54.0332 26.236C53.1445 25.5249 52.2051 24.8899 51.2148 24.3312C51.1386 24.2804 51.0624 24.2549 50.9863 24.2041C49.285 23.2898 47.4314 22.6041 45.4763 22.2231C45.2732 22.1977 45.0954 22.1469 44.8923 22.1215C43.902 21.9691 42.9117 21.8676 41.8961 21.8676C41.8199 21.8676 41.7691 21.8676 41.693 21.8676C41.693 21.8676 41.6676 21.8676 41.6422 21.8676C39.7632 21.8676 37.935 22.1469 36.2084 22.6295C36.056 22.6803 35.8783 22.7311 35.7259 22.7819L35.7006 22.7564Z" fill="#F7C556"/>
<path d="M61.1936 43.3288C61.1936 43.5066 61.1682 43.659 61.1429 43.8368C60.7874 46.9099 59.7209 49.7544 58.0959 52.218C57.9943 52.3704 57.9181 52.4974 57.8166 52.6498C56.1407 55.088 53.9063 57.1198 51.3163 58.5929C51.164 58.6691 51.0116 58.7707 50.8593 58.8469C48.3201 60.193 45.4763 61.0057 42.4293 61.1327C42.2515 61.1327 42.0992 61.1327 41.9215 61.1327C41.8199 61.1327 41.7183 61.1327 41.6167 61.1327C38.6967 61.1327 35.929 60.4978 33.4153 59.3295C33.2629 59.2533 33.1106 59.1771 32.9582 59.1009C30.3175 57.8056 28.0069 55.9261 26.2041 53.6403C26.1025 53.5133 26.001 53.3863 25.8994 53.2339C24.1474 50.9227 22.9285 48.1798 22.3445 45.2336C22.3192 45.0559 22.2938 44.9035 22.243 44.7257C22.0653 43.659 21.9637 42.5669 21.9637 41.4748C21.9637 39.5446 22.243 37.6651 22.7762 35.9127C22.827 35.7603 22.8778 35.5825 22.9285 35.4301C23.868 32.5094 25.4677 29.9188 27.5752 27.7599C27.7022 27.633 27.8037 27.506 27.9307 27.4044C30.089 25.2964 32.7297 23.6709 35.7005 22.7566C35.8529 22.7058 36.0306 22.655 36.1829 22.6042C37.9096 22.0962 39.7378 21.8423 41.6167 21.8423C41.6167 21.8423 41.6421 21.8423 41.6675 21.8423C41.7437 21.8423 41.7945 21.8423 41.8707 21.8423C42.8863 21.8423 43.902 21.9439 44.8669 22.0963C45.07 22.1217 45.2478 22.1724 45.4509 22.1978C47.406 22.5788 49.2596 23.2646 50.9608 24.1789C51.037 24.2297 51.1132 24.2551 51.1894 24.3059C52.1796 24.8646 53.1191 25.4996 54.0078 26.2107C54.1348 26.3123 54.2618 26.4393 54.3887 26.5409C56.6994 28.5219 58.5529 31.0363 59.7463 33.8808C59.8225 34.0332 59.8733 34.1856 59.9241 34.3634C60.7874 36.573 61.2444 38.9604 61.2444 41.4748C61.2444 42.0844 61.2191 42.6939 61.1683 43.3035L61.1936 43.3288Z" fill="#E8AE46"/>
</g>
<path d="M58.096 30.9346C57.842 30.5536 57.5881 30.1981 57.3088 29.8425C55.7092 27.7599 53.6778 26.0075 51.3418 24.7122C50.8086 24.4074 50.25 24.128 49.6913 23.874C47.4569 22.8835 44.9939 22.2993 42.404 22.1978C42.1501 22.1978 41.8961 22.1978 41.6422 22.1978C38.8999 22.1978 36.31 22.7565 33.9232 23.7471C33.72 23.8233 33.5169 23.9249 33.3392 24.0011C30.9778 25.0932 28.8956 26.617 27.1436 28.471C26.9659 28.6488 26.7882 28.852 26.6358 29.0552C25.1123 30.833 23.8935 32.8649 23.1064 35.0999C22.9794 35.4301 22.8778 35.7856 22.7763 36.1158C22.2684 37.8174 22.0146 39.6207 22.0146 41.4748C22.0146 42.2875 22.0653 43.1002 22.1669 43.9129C22.1923 44.1161 22.2177 44.3193 22.2684 44.5224C22.7255 47.2654 23.7412 49.8052 25.2393 52.0402C25.3662 52.218 25.4932 52.3958 25.6202 52.5736C26.8389 54.2498 28.3117 55.7483 29.9875 56.9674C30.1145 57.0689 30.2668 57.1706 30.3937 57.2468C32.6028 58.7706 35.1674 59.8881 37.935 60.3961C38.189 60.4469 38.4683 60.4977 38.7222 60.5231C39.6871 60.6755 40.6774 60.7517 41.693 60.7517C43.0134 60.7517 44.2829 60.6247 45.5271 60.3707C45.781 60.3199 46.0604 60.2691 46.3143 60.1929C48.5487 59.6596 50.6309 58.7706 52.4844 57.5515C52.6368 57.4499 52.7891 57.3484 52.9161 57.2468C54.8712 55.9007 56.5979 54.199 57.9436 52.2434C58.0706 52.0402 58.2229 51.8371 58.3499 51.6339C59.4671 49.8814 60.305 47.9258 60.8129 45.8432C60.8383 45.7162 60.8636 45.5891 60.889 45.4622C61.1683 44.1669 61.3207 42.8208 61.3207 41.4239C61.3207 40.6112 61.2699 39.8238 61.1683 39.0365C61.1176 38.6555 61.0668 38.2746 60.9906 37.919C60.5081 35.3792 59.5179 32.9919 58.1213 30.9093L58.096 30.9346ZM37.9097 45.1574C39.4078 42.4398 40.2965 39.4429 40.525 36.3443C40.8043 36.3443 41.0836 36.3443 41.3629 36.3443C41.1344 39.4429 40.2965 42.4398 38.8491 45.1828C39.357 45.4368 39.9156 45.5891 40.4996 45.6145C40.5504 45.6145 40.5758 45.6145 40.6012 45.6145C40.525 45.8939 40.4742 46.1479 40.4234 46.4273C39.5601 46.3765 38.773 46.1225 38.0366 45.6907C37.8335 45.5637 37.7827 45.3098 37.8843 45.1066L37.9097 45.1574ZM28.8195 47.5448C27.8292 47.5448 27.0167 46.7321 27.0167 45.7416C27.0167 44.7511 27.8292 43.9383 28.8195 43.9383C29.8097 43.9383 30.6223 44.7511 30.6223 45.7416C30.6223 46.7321 29.8097 47.5448 28.8195 47.5448ZM40.9059 54.0975L38.773 52.6244L38.8746 52.2688C38.3413 52.1926 37.8081 52.0402 37.3003 51.8878C37.3764 51.5576 37.4526 51.2529 37.5288 50.9227C38.062 51.1005 38.5952 51.2275 39.1539 51.3037L39.5093 50.0591L40.9059 50.7957L42.4802 49.9576L42.734 51.1767C43.3942 51.0243 44.0544 50.7957 44.6638 50.4909C44.7908 50.7957 44.9177 51.1005 45.0193 51.4052C44.3337 51.71 43.6228 51.9641 42.9118 52.1164L43.0134 52.5989L40.8805 54.072L40.9059 54.0975ZM54.4396 47.5448C53.4493 47.5448 52.6368 46.7321 52.6368 45.7416C52.6368 44.7511 53.4493 43.9383 54.4396 43.9383C55.4298 43.9383 56.2424 44.7511 56.2424 45.7416C56.2424 46.7321 55.4298 47.5448 54.4396 47.5448Z" fill="#E8AE46"/>
<path d="M54.4395 47.5195C55.4352 47.5195 56.2423 46.7122 56.2423 45.7163C56.2423 44.7204 55.4352 43.9131 54.4395 43.9131C53.4439 43.9131 52.6367 44.7204 52.6367 45.7163C52.6367 46.7122 53.4439 47.5195 54.4395 47.5195Z" fill="#FCD9D9"/>
<path d="M28.8195 47.5195C29.8151 47.5195 30.6223 46.7122 30.6223 45.7163C30.6223 44.7204 29.8151 43.9131 28.8195 43.9131C27.8238 43.9131 27.0166 44.7204 27.0166 45.7163C27.0166 46.7122 27.8238 47.5195 28.8195 47.5195Z" fill="#FCD9D9"/>
<path d="M38.8745 52.2437L38.7729 52.5992L40.9058 54.0723L43.0387 52.5992L42.9371 52.1167C41.6168 52.4215 40.2203 52.4722 38.8745 52.2437Z" fill="#B72D48"/>
<path d="M42.7341 51.1513L42.4802 49.9321L40.9059 50.7702L39.5094 50.0337L39.1539 51.2782C40.3473 51.456 41.5661 51.4052 42.7341 51.1513Z" fill="#B72D48"/>
<path d="M42.9371 52.1167C43.6481 51.9389 44.3591 51.7103 45.0446 51.4055C44.9431 51.1007 44.8161 50.796 44.6892 50.4912C44.0544 50.796 43.4196 51.0245 42.7594 51.1769C41.5914 51.4563 40.3726 51.4817 39.1792 51.304C38.6206 51.2278 38.0874 51.1008 37.5541 50.923C37.478 51.2532 37.3764 51.5579 37.3256 51.8881C37.8335 52.0658 38.3667 52.1929 38.8999 52.2691C40.2456 52.4977 41.6168 52.4468 42.9626 52.1421L42.9371 52.1167Z" fill="#354C36"/>
<path d="M38.062 45.7414C38.7984 46.1732 39.5855 46.4272 40.4488 46.4779C40.4996 46.1986 40.5504 45.9192 40.6265 45.6652C40.6011 45.6652 40.5504 45.6652 40.525 45.6652C39.941 45.6398 39.3824 45.4874 38.8745 45.2334C40.3219 42.4904 41.1852 39.4936 41.3883 36.395C41.109 36.395 40.8297 36.395 40.5504 36.395C40.3218 39.4936 39.4331 42.4905 37.935 45.2081C37.8335 45.4112 37.8842 45.6652 38.0874 45.7922L38.062 45.7414Z" fill="#354C36"/>
<path d="M28.7179 37.1826H27.5753C31.7141 43.0241 37.0717 37.4112 37.0717 37.4112H35.9037C34.2533 38.5033 31.3586 39.7478 28.7179 37.1826Z" fill="#354C36"/>
<path d="M46.3905 37.5889H45.2479C49.3867 43.4304 54.7443 37.8174 54.7443 37.8174H53.5763C51.9259 38.9095 49.0312 40.154 46.3905 37.5889Z" fill="#354C36"/>
</svg>
